<svg width="104.5" height="104.5" xmlns="http://www.w3.org/2000/svg" preserveAspectRatio="xMidYMid meet">

 <g>
  <title>background</title>
  <rect fill="none" id="canvas_background" height="402" width="582" y="-1" x="-1"/>
 </g>
 <g>
  <title>Layer 1</title>
  <g id="svg_1" transform="matrix(0.012775,0,0,0.012775,-15.304452,-9.893285) ">
   <path stroke="#fff" id="svg_2" fill="#000" d="m1725,8911c-6,-5 -39,-19 -73,-32c-35,-12 -66,-28 -69,-36c-3,-8 25,-41 68,-80c127,-114 229,-225 284,-308c29,-44 81,-111 115,-150c191,-213 444,-597 655,-994c136,-256 145,-283 157,-476c15,-246 4,-566 -31,-900c-17,-159 -31,-294 -31,-298c0,-13 -28,-2 -249,96c-142,63 -216,102 -242,126c-21,20 -78,57 -127,84c-107,57 -135,59 -307,22c-162,-34 -232,-73 -397,-218c-38,-33 -68,-65 -68,-71c0,-11 -68,-114 -164,-249l-48,-68l17,-64c14,-52 17,-91 13,-198c-4,-88 -2,-141 6,-153c6,-10 9,-43 7,-71l-3,-52l59,-27c33,-16 75,-27 98,-26c28,0 48,-7 65,-22c72,-65 125,-81 180,-53c24,12 25,15 21,108c-4,110 -3,111 84,129c84,17 192,7 478,-45c265,-48 630,-105 671,-105c19,0 35,-13 65,-54c22,-29 63,-74 93,-100l53,-48l90,7c160,11 347,36 407,55c57,18 63,18 171,0c62,-10 159,-23 217,-29c264,-28 300,-34 311,-47c7,-9 17,-11 28,-4c12,6 25,4 42,-5c95,-55 109,-59 259,-61c84,-1 177,-8 221,-17c198,-41 788,-114 1066,-133l102,-7l-14,-28c-20,-37 -19,-49 3,-47c9,1 46,0 82,0l65,-2l53,-73c29,-39 59,-81 67,-92c13,-19 16,-18 73,38c33,33 70,81 83,108l23,49l145,-5c214,-7 786,-18 856,-16c33,1 111,8 173,16c62,8 133,15 158,15c54,0 55,5 -43,-127c-68,-91 -158,-172 -221,-199c-19,-7 -47,-25 -63,-38c-16,-14 -95,-46 -184,-76c-88,-29 -168,-62 -184,-76c-16,-13 -35,-24 -42,-24c-8,0 -56,-9 -106,-21c-77,-18 -93,-25 -93,-40c0,-35 89,-20 293,50c86,29 117,36 117,26c0,-9 -53,-31 -145,-62c-86,-28 -145,-53 -145,-60c0,-7 8,-13 17,-13c25,0 8,-11 -29,-19c-23,-5 -32,-12 -30,-24c2,-9 -2,-17 -9,-17c-6,0 -9,-7 -5,-15c3,-8 2,-15 -3,-15c-13,0 -46,41 -85,106c-20,34 -42,64 -49,66c-6,3 -43,1 -82,-3c-38,-4 -80,-8 -92,-8c-16,-1 -23,-7 -23,-19c0,-17 -15,-20 -131,-31c-95,-9 -134,-10 -142,-2c-15,15 -27,14 -27,-3c0,-10 -16,-16 -52,-20c-68,-7 -331,-28 -385,-31c-22,-2 -46,-6 -52,-9c-15,-10 -33,3 -27,19c2,7 -2,16 -10,19c-22,9 -22,9 -26,-22c-3,-27 -4,-27 -85,-30c-53,-2 -83,1 -83,8c0,5 8,10 18,10c9,0 33,10 52,22c19,11 51,22 70,24c19,1 41,2 48,3c6,1 12,6 12,12c0,6 -16,10 -37,9c-21,-1 -65,-1 -98,0l-60,2l40,10c23,6 49,22 63,38l22,29l-57,11c-32,7 -64,15 -72,18c-12,4 -13,-5 -7,-52l6,-58l-37,7c-20,4 -47,15 -60,25c-19,14 -38,17 -95,15l-72,-3l-9,-33c-13,-51 -21,-53 -51,-14c-15,19 -34,35 -42,35c-11,0 -13,6 -9,20c4,13 2,20 -7,20c-7,1 -165,3 -351,5c-186,2 -362,9 -390,15c-29,5 -65,12 -82,14c-16,1 0,4 37,5c36,0 73,4 82,7c44,17 1,24 -148,24c-166,0 -198,7 -161,34c15,11 9,14 -45,19c-35,4 -84,7 -109,7c-38,1 -43,2 -27,12c11,6 41,8 72,5c54,-6 70,4 37,22c-10,5 -67,11 -128,14c-109,6 -223,31 -247,55c-6,6 -37,12 -68,12c-30,0 -71,5 -90,10c-19,6 -89,15 -155,21c-79,6 -134,16 -160,29c-37,18 -60,19 -335,14c-286,-4 -401,-12 -485,-33c-22,-6 -83,-20 -135,-31c-151,-34 -422,-182 -531,-290c-103,-101 -116,-134 -165,-415c-23,-135 -25,-168 -21,-330c5,-206 18,-266 91,-421c151,-318 375,-464 610,-396c103,30 215,52 260,52c72,0 216,22 226,36c21,24 -22,32 -205,36c-201,6 -248,14 -351,64c-75,36 -117,82 -150,161l-16,38l45,40c86,77 235,152 397,198c47,14 186,39 310,56c124,17 234,36 244,42c11,6 31,13 45,15c14,2 70,9 124,16c100,12 140,35 45,25c-43,-4 -49,-3 -30,5c16,8 42,8 91,1c70,-11 121,-7 121,8c0,5 -7,9 -17,9c-9,0 -14,2 -11,5c3,4 48,10 99,16c260,27 885,89 898,89c9,0 23,5 31,10c13,9 13,12 -3,24c-15,12 -12,14 35,24c44,8 54,7 64,-6c9,-13 37,-16 157,-16c141,-1 146,0 156,21c9,20 6,22 -40,32c-28,6 -58,12 -67,12c-58,5 266,38 376,39c46,0 143,9 215,21c112,18 172,21 392,20c143,-1 319,3 390,10c90,8 147,8 185,1c33,-6 57,-7 61,-1c3,5 57,18 120,30c63,11 141,29 174,39c66,21 267,55 416,69c52,6 141,23 199,39c58,17 139,37 180,45c130,27 366,117 385,146c3,6 38,27 78,48c185,97 296,289 326,563c6,58 6,89 -1,98c-14,16 -15,16 65,35c80,19 161,63 153,83c-3,8 -8,20 -11,27c-9,20 58,91 101,106c22,8 54,24 71,35c29,18 33,26 33,65c0,35 9,58 40,106c22,33 55,76 75,95c39,37 44,68 21,116c-8,16 -27,94 -41,174c-30,164 -36,175 -127,221c-57,29 -63,35 -118,119c-46,69 -38,96 41,151c53,37 -7,30 -94,-11c-45,-21 -79,-15 -136,24c-40,28 -58,32 -153,41l-66,5l-127,-85c-74,-50 -137,-85 -152,-85c-13,0 -86,-34 -161,-77c-75,-42 -153,-84 -172,-94c-30,-15 -545,-159 -569,-159c-5,0 16,62 46,138c88,223 144,424 173,627c40,283 104,646 121,699c53,156 143,300 399,631c241,313 528,701 550,745c34,66 100,320 100,383c0,12 -13,24 -39,34c-41,16 -51,37 -51,107c0,45 -44,108 -137,198c-69,67 -85,77 -128,84c-77,13 -215,10 -265,-5c-108,-32 -114,-36 -133,-76c-11,-22 -36,-60 -56,-85c-20,-25 -57,-74 -83,-110c-63,-89 -127,-146 -206,-182c-66,-30 -173,-99 -283,-184c-84,-64 -149,-141 -199,-234c-25,-46 -69,-118 -98,-159c-72,-104 -107,-180 -139,-297c-25,-92 -27,-115 -29,-324c-2,-124 -7,-450 -12,-725c-11,-526 -12,-541 -66,-750c-26,-102 -180,-603 -188,-610c-2,-3 -61,-10 -130,-16c-108,-10 -143,-9 -245,6c-86,13 -145,15 -220,10c-82,-5 -103,-4 -103,7c0,46 37,206 76,329c47,148 203,889 244,1155c25,163 27,424 5,640c-18,175 -38,263 -94,399c-36,89 -48,107 -106,161c-66,62 -85,94 -85,144c0,34 -75,140 -117,165c-15,9 -44,41 -63,72c-19,30 -44,59 -54,65c-10,6 -38,28 -61,49c-57,52 -105,70 -201,77c-148,9 -158,3 -340,-177c-100,-99 -190,-177 -241,-211c-64,-42 -86,-64 -97,-92c-19,-45 -135,-147 -214,-187c-34,-17 -63,-39 -69,-54c-6,-13 -37,-44 -69,-68c-32,-24 -66,-59 -76,-78c-11,-19 -30,-43 -43,-53c-13,-10 -34,-37 -46,-58c-13,-22 -34,-47 -47,-56c-20,-13 -23,-22 -19,-49c3,-21 0,-41 -9,-54c-14,-19 -13,-21 5,-21c12,0 21,-3 21,-6c0,-3 -38,-52 -85,-109c-47,-57 -85,-106 -85,-109c0,-3 62,25 138,63c75,37 223,102 327,144c105,42 244,99 310,128c133,59 178,65 222,33c61,-44 64,-61 73,-435c10,-376 18,-483 57,-824c23,-199 26,-272 26,-542c1,-172 -2,-315 -5,-318c-8,-8 -247,15 -317,31c-36,8 -105,28 -154,45c-49,16 -144,40 -211,54c-66,13 -152,31 -191,39c-38,8 -158,24 -265,37l-194,22l-41,38c-22,20 -68,53 -103,74c-67,39 -75,50 -91,133c-34,167 -14,380 54,607c41,132 57,168 123,270c114,177 150,295 159,520c5,128 7,144 33,190c15,28 30,62 33,76c9,34 -26,170 -57,223c-13,23 -26,54 -30,69c-10,43 -90,116 -191,176c-70,42 -125,88 -248,210c-88,86 -193,197 -235,246c-134,160 -385,414 -414,420c-15,4 -46,21 -70,39c-65,50 -105,67 -167,73c-31,2 -73,11 -94,19c-53,20 -116,18 -151,-5l-29,-20l-72,40c-74,40 -94,46 -110,30zm6166,-4640c-14,-10 -31,-17 -38,-14c-18,7 14,32 42,32c18,1 18,-1 -4,-18zm-721,-631c13,-8 12,-10 -4,-10c-10,0 -25,-8 -32,-17c-12,-17 -13,-16 -14,4c0,18 10,30 30,32c3,0 12,-4 20,-9zm-1670,-50c8,-5 12,-12 8,-15c-10,-10 -49,5 -43,16c8,11 16,11 35,-1zm1253,-61c49,-10 56,-15 59,-38c3,-25 6,-26 58,-26c30,1 84,4 120,8c63,6 51,-2 -22,-18c-16,-3 -28,-10 -28,-16c0,-7 22,-8 66,-3c50,5 65,4 60,-5c-4,-7 -16,-9 -26,-6c-10,3 -43,-1 -73,-10c-53,-15 -56,-15 -97,6c-35,19 -52,21 -115,16c-47,-3 -77,-1 -84,6c-8,8 -19,5 -41,-11c-26,-19 -41,-22 -127,-21l-98,1l168,33c93,18 171,36 174,39c11,11 -39,6 -217,-19c-96,-14 -188,-24 -205,-24c-16,1 7,7 53,14c123,19 222,43 267,65c50,23 41,22 108,9z"/>
   <path stroke="#fff" id="svg_3" fill="#000" d="m5800,3701c0,-24 14,-41 34,-41c23,0 35,7 55,33c12,16 10,17 -38,17c-28,0 -51,-4 -51,-9z"/>
   <path stroke="#fff" id="svg_4" fill="#000" d="m4885,3145c30,-25 64,-39 123,-49c38,-6 41,3 10,31c-37,33 -64,43 -115,43l-48,-1l30,-24z"/>
   <path stroke="#fff" id="svg_5" fill="#000" d="m7637,2964c-3,-3 -3,-36 0,-73c6,-74 -10,-119 -62,-174c-33,-34 -211,-124 -329,-166c-266,-94 -975,-167 -1948,-201c-602,-21 -871,-36 -971,-55c-38,-7 -85,-11 -102,-8c-18,3 -35,0 -39,-6c-4,-7 -34,-8 -86,-4c-57,4 -80,3 -80,-6c0,-6 -16,-11 -39,-11c-45,0 -63,-16 -31,-28c15,-5 -22,-15 -122,-30c-168,-26 -158,-26 -158,-7c0,8 -4,15 -10,15c-5,0 -10,-5 -10,-11c0,-8 -5,-8 -15,1c-18,15 -45,6 -45,-15c0,-19 -25,-29 -115,-44c-38,-7 -80,-14 -92,-17c-13,-2 -23,0 -23,6c0,5 12,10 28,10c43,0 72,11 72,27c0,12 -10,14 -52,8c-94,-13 -143,-29 -146,-47c-2,-12 3,-18 15,-18c15,0 16,-2 3,-10c-8,-5 -24,-10 -34,-10c-11,0 -27,-6 -35,-13c-9,-8 -106,-42 -216,-76c-519,-162 -713,-263 -903,-466c-62,-66 -142,-173 -142,-189c0,-16 31,-3 41,17c14,27 73,83 129,122c23,16 54,44 67,62c14,18 30,33 35,33c5,0 36,21 69,46c65,50 205,127 221,122c6,-2 -8,-17 -31,-32c-45,-32 -112,-111 -220,-260l-71,-98l0,53c-1,48 -2,52 -14,36c-8,-10 -29,-61 -47,-113c-24,-69 -44,-108 -76,-145c-49,-58 -67,-88 -59,-97c10,-9 77,60 95,98c9,20 31,54 49,75l32,40l0,-33c0,-43 12,-41 118,12c161,81 275,118 382,123c58,3 140,16 210,33c150,38 312,66 480,83c136,14 278,16 297,4c5,-3 75,-2 154,3c269,17 363,21 358,16c-5,-5 -532,-46 -591,-46c-24,0 -28,-3 -19,-13c9,-11 55,-13 234,-9c147,3 235,1 258,-6c34,-11 188,-25 459,-42c99,-6 163,-15 202,-29c50,-17 169,-41 353,-71c114,-19 143,-28 184,-58c35,-26 54,-32 95,-32c28,-1 71,-5 96,-10c29,-6 151,-2 350,9c175,11 335,15 375,11c112,-11 471,6 638,30c118,17 176,31 257,63c58,22 134,50 170,62c149,51 258,123 378,249c102,108 122,151 207,431c65,214 67,224 75,370c12,217 -4,270 -112,365c-27,23 -48,50 -48,61c0,55 -64,112 -93,83z"/>
  </g>
 </g>
</svg>